<svg xmlns="http://www.w3.org/2000/svg" viewBox="0 0 180.11 36"><defs><style>.cls-1{fill-opacity:0.65;fill:url(#radial-gradient);}.cls-2{fill:#fff;}.cls-3{fill:url(#radial-gradient-2);}.cls-4{fill:#dbdada;}.cls-5{fill:#c12126;}.cls-6{fill:#010101;}.cls-7{fill:#212120;}</style><radialGradient id="radial-gradient" cx="17.92" cy="18.26" r="17.74" gradientUnits="userSpaceOnUse"><stop offset="0" stop-color="#231f20"/><stop offset=".56" stop-color="#231f20" stop-opacity=".95"/><stop offset=".76" stop-color="#231f20" stop-opacity=".75"/><stop offset=".9" stop-color="#231f20" stop-opacity=".42"/><stop offset="1" stop-color="#231f20" stop-opacity="0"/></radialGradient><radialGradient id="radial-gradient-2" cx="17.76" cy="17.76" r="16.88" gradientUnits="userSpaceOnUse"><stop offset=".56" stop-color="#f8f8f8"/><stop offset=".77" stop-color="#f8f8f8"/><stop offset=".89" stop-color="#f6f6f6"/><stop offset=".94" stop-color="#efefef"/><stop offset=".96" stop-color="#e6e6e6"/><stop offset=".97" stop-color="#e3e3e3"/><stop offset=".99" stop-color="#dedede"/><stop offset="1" stop-color="#dedede"/></radialGradient></defs><title>Artboard 1</title><g id="Logo"><g id="SM_Ball"><g id="Outer_Drop_Shadow"><circle class="cls-1" cx="17.92" cy="18.26" r="17.74"/><circle class="cls-2" cx="17.74" cy="17.74" r="17.74"/></g><g id="Inner_Circle"><path class="cls-3" d="M17.76 34.64a16.88 16.88 0 1 1 16.88-16.88 16.9 16.9 0 0 1-16.88 16.88z"/><path class="cls-4" d="M17.76 1.31a16.45 16.45 0 1 1-16.45 16.45 16.47 16.47 0 0 1 16.45-16.45m0-.85a17.3 17.3 0 1 0 17.3 17.3 17.3 17.3 0 0 0-17.3-17.3z"/></g><path class="cls-5" d="M22 10.91a107.93 107.93 0 0 0-10.55-5.56s-.4 3.65-.45 10.74v.56h8.37a.72.72 0 1 1 0 1.44h-8.37v.5700000000000001a91.82 91.82 0 0 0 .62 10.62 79.26 79.26 0 0 0 9.9-4.81 86.59 86.59 0 0 0 10.62-7s-4.83-3.47-10.14-6.56zm-2 10.09a3.63 3.63 0 0 1-3.38-2.3h1.5a2.31 2.31 0 1 0-.07-2.58h-1.45a3.64 3.64 0 1 1 3.4 4.88z"/></g><g id="Logo_Type"><path class="cls-6" d="M179.43 16.48a2.32 2.32 0 0 1-3.28-3.29 2.32 2.32 0 0 1 4 1.64 2.25 2.25 0 0 1-.72 1.65zm-3.06-3.06a1.93 1.93 0 0 0-.58 1.41 2 2 0 0 0 .58 1.42 2 2 0 0 0 2.83 0 2 2 0 0 0 0-2.84 2 2 0 0 0-2.83 0zm1.37.13a1.94 1.94 0 0 1 .7.09.63.63 0 0 1 .4.65.56.56 0 0 1-.25.5 1 1 0 0 1-.37.12.62.62 0 0 1 .44.25.7.7 0 0 1 .14.4v.38a.41.41 0 0 0 0 .13h-.42v-.34a.62.62 0 0 0-.24-.58 1.08 1.08 0 0 0-.5-.08h-.35v1h-.45v-2.52zm.49.4a1.17 1.17 0 0 0-.54-.09h-.38v.92h.41a1.22 1.22 0 0 0 .43-.06.46.46 0 0 0 .09-.77z"/><path class="cls-7" d="M41.19 21.32a2.81 2.81 0 0 0 .86 1 3.7 3.7 0 0 0 1.25.57 5.92 5.92 0 0 0 1.49.19 7.72 7.72 0 0 0 1.11-.08 3.88 3.88 0 0 0 1.1-.34 2.43 2.43 0 0 0 .87-.68 1.71 1.71 0 0 0 .35-1.1 1.55 1.55 0 0 0-.46-1.17 3.64 3.64 0 0 0-1.2-.74 12 12 0 0 0-1.69-.52q-.94-.22-1.91-.5a16.85 16.85 0 0 1-1.96-.61 6.62 6.62 0 0 1-1.69-.93 4.38 4.38 0 0 1-1.16-1.41 4.33 4.33 0 0 1-.46-2.07 4.64 4.64 0 0 1 .58-2.37 5.28 5.28 0 0 1 1.53-1.69 6.65 6.65 0 0 1 2.13-1 9.08 9.08 0 0 1 2.38-.32 11.27 11.27 0 0 1 2.69.31 6.66 6.66 0 0 1 2.27 1 5.09 5.09 0 0 1 1.57 1.77 5.44 5.44 0 0 1 .58 2.62h-3.78a3.14 3.14 0 0 0-.33-1.31 2.19 2.19 0 0 0-.76-.82 3.21 3.21 0 0 0-1.08-.42 6.65 6.65 0 0 0-1.33-.12 4.58 4.58 0 0 0-.94.1 2.53 2.53 0 0 0-.86.35 2.15 2.15 0 0 0-.63.62 1.66 1.66 0 0 0-.25.94 1.59 1.59 0 0 0 .2.84 1.77 1.77 0 0 0 .78.6 9.93 9.93 0 0 0 1.61.55l2.69.69q.5.1 1.38.36a6.61 6.61 0 0 1 1.75.83 5.29 5.29 0 0 1 1.5 1.54 4.34 4.34 0 0 1 .63 2.42 5.42 5.42 0 0 1-.47 2.26 4.9 4.9 0 0 1-1.4 1.8 6.73 6.73 0 0 1-2.31 1.18 10.91 10.91 0 0 1-3.19.42 11.2 11.2 0 0 1-2.84-.36 7.13 7.13 0 0 1-2.43-1.13 5.57 5.57 0 0 1-1.67-2 5.85 5.85 0 0 1-.6-2.83h3.77a3.25 3.25 0 0 0 .33 1.56zM61.23 12.86v2.36h-2.58v6.35a1.72 1.72 0 0 0 .3 1.19 1.72 1.72 0 0 0 1.19.3h.57l.52-.07v2.73a8.42 8.42 0 0 1-1 .1h-1.07a10.28 10.28 0 0 1-1.55-.11 3.65 3.65 0 0 1-1.29-.43 2.29 2.29 0 0 1-.88-.92 3.27 3.27 0 0 1-.32-1.56v-7.59h-2.12v-2.35h2.13v-3.86h3.52v3.84zM63.39 14.74a4.22 4.22 0 0 1 1.39-1.31 6.05 6.05 0 0 1 1.9-.71 10.8 10.8 0 0 1 2.12-.21 14.42 14.42 0 0 1 2 .14 6 6 0 0 1 1.81.53 3.57 3.57 0 0 1 1.34 1.1 3.08 3.08 0 0 1 .52 1.87v6.67a13.37 13.37 0 0 0 .1 1.66 3 3 0 0 0 .35 1.19h-3.62a5 5 0 0 1-.16-.61 5.2 5.2 0 0 1-.09-.63 4.59 4.59 0 0 1-2 1.22 8 8 0 0 1-2.33.35 6.3 6.3 0 0 1-1.72-.22 3.92 3.92 0 0 1-1.39-.69 3.23 3.23 0 0 1-.93-1.19 4 4 0 0 1-.33-1.71 3.74 3.74 0 0 1 .38-1.8 3.21 3.21 0 0 1 1-1.13 4.45 4.45 0 0 1 1.39-.63 14.94 14.94 0 0 1 1.57-.33q.79-.12 1.56-.2a9.4 9.4 0 0 0 1.36-.22 2.38 2.38 0 0 0 .94-.43 1 1 0 0 0 .32-.83 1.87 1.87 0 0 0-.19-.91 1.37 1.37 0 0 0-.5-.52 2 2 0 0 0-.72-.25 5.92 5.92 0 0 0-.88-.06 2.67 2.67 0 0 0-1.64.45 2 2 0 0 0-.69 1.49h-3.48a4.09 4.09 0 0 1 .62-2.08zm7 5a5.71 5.71 0 0 1-.72.19q-.38.07-.81.12l-.84.12a6.38 6.38 0 0 0-.78.2 2.32 2.32 0 0 0-.67.33 1.59 1.59 0 0 0-.46.53 1.71 1.71 0 0 0-.17.82 1.65 1.65 0 0 0 .17.79 1.33 1.33 0 0 0 .47.51 2 2 0 0 0 .69.26 4.42 4.42 0 0 0 .82.07 3.11 3.11 0 0 0 1.61-.35 2.32 2.32 0 0 0 .84-.83 2.66 2.66 0 0 0 .33-1 6.79 6.79 0 0 0 .06-.79v-1.3a1.58 1.58 0 0 1-.58.31zM79.26 12.86v2.38a4.32 4.32 0 0 1 .67-1.1 4.39 4.39 0 0 1 1-.87 4.74 4.74 0 0 1 1.17-.56 4.21 4.21 0 0 1 1.29-.2 2.75 2.75 0 0 1 .77.12v3.27l-.6-.09a6.3 6.3 0 0 0-.67 0 3.76 3.76 0 0 0-1.64.32 2.84 2.84 0 0 0-1.08.88 3.53 3.53 0 0 0-.58 1.3 7.08 7.08 0 0 0-.17 1.61v5.78h-3.51v-12.84zM93.6 12.86v2.36h-2.6v6.35a1.72 1.72 0 0 0 .3 1.19 1.72 1.72 0 0 0 1.19.3h.57l.54-.06v2.73a8.42 8.42 0 0 1-1 .1h-1.07a10.28 10.28 0 0 1-1.53-.14 3.65 3.65 0 0 1-1.29-.43 2.29 2.29 0 0 1-.88-.92 3.27 3.27 0 0 1-.32-1.56v-7.57h-2.15v-2.35h2.14v-3.86h3.5v3.84zM98.78 8l6.13 15.53 6.09-15.53h2.48v17.68h-1.68v-15.3l-6.05 15.3h-1.59l-6.16-15.3v15.3h-1.7v-17.68zM116.63 21.45a4.8 4.8 0 0 0 .76 1.62 4.32 4.32 0 0 0 1.31 1.19 3.67 3.67 0 0 0 1.91.47 3.8 3.8 0 0 0 2.68-.89 4.7 4.7 0 0 0 1.34-2.38h1.56a6.24 6.24 0 0 1-1.82 3.37 5.44 5.44 0 0 1-3.76 1.17 6 6 0 0 1-2.61-.5 4.81 4.81 0 0 1-1.8-1.46 6.36 6.36 0 0 1-1-2.16 9.81 9.81 0 0 1-.33-2.59 9.3 9.3 0 0 1 .33-2.48 6.66 6.66 0 0 1 1-2.17 5.17 5.17 0 0 1 1.8-1.54 5.53 5.53 0 0 1 2.62-.58 5.06 5.06 0 0 1 4.4 2.24 6.74 6.74 0 0 1 1 2.31 10.13 10.13 0 0 1 .25 2.64h-9.85a6.92 6.92 0 0 0 .21 1.74zm7.74-4.77a4.69 4.69 0 0 0-.81-1.45 4 4 0 0 0-1.26-1 3.62 3.62 0 0 0-1.69-.38 3.68 3.68 0 0 0-1.71.38 4 4 0 0 0-1.26 1 5.07 5.07 0 0 0-.83 1.46 7.15 7.15 0 0 0-.41 1.7h8.28a5.66 5.66 0 0 0-.31-1.71zM129.5 21.45a4.8 4.8 0 0 0 .76 1.62 4.32 4.32 0 0 0 1.31 1.19 3.67 3.67 0 0 0 1.91.47 3.8 3.8 0 0 0 2.68-.89 4.7 4.7 0 0 0 1.34-2.38h1.56a6.24 6.24 0 0 1-1.82 3.37 5.44 5.44 0 0 1-3.76 1.17 6 6 0 0 1-2.62-.53 4.81 4.81 0 0 1-1.8-1.46 6.36 6.36 0 0 1-1-2.16 9.81 9.81 0 0 1-.33-2.59 9.3 9.3 0 0 1 .27-2.46 6.66 6.66 0 0 1 1-2.17 5.17 5.17 0 0 1 1.8-1.54 5.53 5.53 0 0 1 2.62-.58 5.06 5.06 0 0 1 4.4 2.24 6.74 6.74 0 0 1 1 2.31 10.13 10.13 0 0 1 .25 2.64h-9.85a6.92 6.92 0 0 0 .28 1.75zm7.74-4.77a4.69 4.69 0 0 0-.81-1.45 4 4 0 0 0-1.26-1 3.62 3.62 0 0 0-1.69-.38 3.68 3.68 0 0 0-1.71.38 4 4 0 0 0-1.26 1 5.07 5.07 0 0 0-.83 1.46 7.15 7.15 0 0 0-.41 1.7h8.28a5.66 5.66 0 0 0-.31-1.71zM146.3 12.88v1.32h-2.6v8.63a2.8 2.8 0 0 0 .21 1.2q.21.43 1.05.48a12.12 12.12 0 0 0 1.34-.07v1.31h-1.38a3.09 3.09 0 0 1-2.18-.61 3.06 3.06 0 0 1-.6-2.24v-8.7h-2.24v-1.32h2.23v-3.88h1.56v3.84zM150.15 8v2.51h-1.56v-2.51zm0 4.91v12.8h-1.56v-12.83zM153.45 12.88v2.21a3.75 3.75 0 0 1 1.59-1.87 4.66 4.66 0 0 1 2.51-.71 6.31 6.31 0 0 1 2.24.35 3.56 3.56 0 0 1 1.45 1 3.65 3.65 0 0 1 .77 1.55 8.73 8.73 0 0 1 .22 2.06v8.23h-1.56v-8a7.4 7.4 0 0 0-.15-1.53 3.23 3.23 0 0 0-.52-1.23 2.53 2.53 0 0 0-1-.82 3.69 3.69 0 0 0-1.57-.3 4 4 0 0 0-1.67.33 3.62 3.62 0 0 0-1.24.92 4.23 4.23 0 0 0-.79 1.39 5.65 5.65 0 0 0-.31 1.75v7.47h-1.56v-12.8zM174.49 27.19a5 5 0 0 1-1 1.93 4.27 4.27 0 0 1-1.75 1.22 7.29 7.29 0 0 1-2.64.42 7.94 7.94 0 0 1-1.89-.22 5.36 5.36 0 0 1-1.65-.69 4.11 4.11 0 0 1-1.22-1.2 3.59 3.59 0 0 1-.56-1.75h1.56a2.77 2.77 0 0 0 .48 1.2 2.89 2.89 0 0 0 .87.78 3.86 3.86 0 0 0 1.13.43 5.88 5.88 0 0 0 1.26.14 3.75 3.75 0 0 0 3.15-1.24 5.71 5.71 0 0 0 1-3.57v-1.74a4.57 4.57 0 0 1-1.6 1.91 4.27 4.27 0 0 1-2.47.72 6.18 6.18 0 0 1-2.63-.51 4.88 4.88 0 0 1-1.8-1.4 5.71 5.71 0 0 1-1-2.1 9.87 9.87 0 0 1-.32-2.57 8 8 0 0 1 .38-2.49 6.18 6.18 0 0 1 1.12-2.06 5.2 5.2 0 0 1 1.74-1.4 5.73 5.73 0 0 1 2.47-.51 4.5 4.5 0 0 1 1.35.2 4.27 4.27 0 0 1 1.15.56 5 5 0 0 1 .93.83 3.79 3.79 0 0 1 .63 1v-2.2h1.56v11.76a9.75 9.75 0 0 1-.25 2.55zm-3.58-3.41a4.07 4.07 0 0 0 1.29-1.14 5 5 0 0 0 .8-1.64 6.87 6.87 0 0 0 .26-1.88 8.16 8.16 0 0 0-.22-1.88 5.45 5.45 0 0 0-.72-1.71 3.9 3.9 0 0 0-1.32-1.23 3.61 3.61 0 0 0-1.9-.47 3.76 3.76 0 0 0-1.91.46 4.07 4.07 0 0 0-1.31 1.2 5 5 0 0 0-.76 1.7 8.08 8.08 0 0 0-.24 1.95 7.19 7.19 0 0 0 .25 1.88 4.83 4.83 0 0 0 .77 1.62 4 4 0 0 0 1.31 1.14 3.87 3.87 0 0 0 1.89.43 3.57 3.57 0 0 0 1.81-.43z"/></g></g></svg>